<svg width="1920" height="1080" viewBox="0 0 1920 1080" fill="none" xmlns="http://www.w3.org/2000/svg">
<g filter="url(#filter0_d_238_360)">
<path d="M2210 465.649C2210 1059.15 1650.8 1540.29 961 1540.29M2210 465.649C2210 -127.857 1650.8 -608.989 961 -608.989M2210 465.649H-288M961 1540.29C271.196 1540.29 -288 1059.15 -288 465.649M961 1540.29V-608.989M-288 465.649C-288 -127.857 271.196 -608.989 961 -608.989M961 -609C492.983 -518.757 137.44 -71.9565 137.44 465.638C137.44 1003.23 492.983 1450.03 960.999 1540.28M961 -609C359.898 -518.757 -96.7475 -71.9565 -96.7475 465.638C-96.7476 1003.23 359.898 1450.03 960.999 1540.28M961 -609C727.986 -465.415 558.978 -38.5829 558.977 465.638C558.977 969.859 727.986 1396.69 960.999 1540.28M961 -609C838.487 -375.167 758.037 18.9063 758.037 465.638C758.037 912.37 838.487 1306.44 960.999 1540.28M961 -609C603.561 -465.415 344.306 -38.5834 344.305 465.638C344.305 969.859 603.561 1396.69 960.999 1540.28M961.001 1540.29C1429.02 1450.05 1784.56 1003.25 1784.56 465.654C1784.56 -71.9407 1429.02 -518.741 961.001 -608.984M961.001 1540.29C1562.1 1450.05 2018.75 1003.25 2018.75 465.654C2018.75 -71.9406 1562.1 -518.741 961.001 -608.984M961.001 1540.29C1194.01 1396.71 1363.02 969.875 1363.02 465.654C1363.02 -38.5673 1194.02 -465.4 961.001 -608.984M961.001 1540.29C1083.51 1306.46 1163.96 912.386 1163.96 465.654C1163.96 18.9219 1083.51 -375.151 961.001 -608.984M961.001 1540.29C1318.44 1396.71 1577.7 969.875 1577.7 465.654C1577.7 -38.5673 1318.44 -465.4 961.001 -608.984M-139.683 -44.8037C147.243 96.7435 534.661 183.557 960.998 183.557C1387.34 183.557 1774.75 96.7435 2061.68 -44.8037M2151.45 136.541C1821.33 258.729 1408.68 331.319 960.999 331.319C513.318 331.319 100.666 258.729 -229.454 136.541M-14.7827 -206C246.027 -53.3425 587.381 39.1518 960.998 39.1518C1334.62 39.1518 1675.97 -53.3425 1936.78 -206M293.564 -444.435C484.777 -321.359 714.247 -249.657 960.998 -249.657C1207.75 -249.657 1437.22 -321.359 1628.43 -444.435M1220.56 -585.864C1138.81 -548.816 1051.58 -528.794 960.998 -528.794C870.416 -528.794 783.182 -548.816 701.44 -585.864M1784.56 -343.688C1596.28 -198.765 1295.33 -105.253 960.998 -105.253C626.67 -105.253 325.716 -198.765 137.439 -343.688M1437.18 -528.392C1307.86 -438.191 1141.94 -383.987 960.998 -383.987C780.057 -383.987 614.131 -438.191 484.817 -528.392M2061.68 976.094C1774.76 834.547 1387.34 747.733 961 747.733C534.663 747.733 147.244 834.546 -139.682 976.094M-229.455 794.749C100.665 672.561 513.317 599.971 960.999 599.971C1408.68 599.971 1821.33 672.561 2151.45 794.749M1936.78 1137.29C1675.97 984.633 1334.62 892.138 960.999 892.138C587.381 892.138 246.027 984.632 -14.7826 1137.29M1628.43 1375.73C1437.22 1252.65 1207.75 1180.95 960.997 1180.95C714.246 1180.95 484.776 1252.65 293.563 1375.73M701.441 1517.15C783.184 1480.11 870.418 1460.08 960.999 1460.08C1051.58 1460.08 1138.81 1480.11 1220.56 1517.15M137.44 1274.98C325.717 1130.06 626.671 1036.54 960.999 1036.54C1295.33 1036.54 1596.28 1130.06 1784.56 1274.98M484.816 1459.68C614.131 1369.48 780.057 1315.28 960.998 1315.28C1141.94 1315.28 1307.86 1369.48 1437.18 1459.68" stroke="white" stroke-opacity="0.1" shape-rendering="crispEdges"/>
</g>
<defs>
<filter id="filter0_d_238_360" x="-292.5" y="-609.641" width="2507" height="2158.57" filterUnits="userSpaceOnUse" color-interpolation-filters="sRGB">
<feFlood flood-opacity="0" result="BackgroundImageFix"/>
<feColorMatrix in="SourceAlpha" type="matrix" values="0 0 0 0 0 0 0 0 0 0 0 0 0 0 0 0 0 0 127 0" result="hardAlpha"/>
<feOffset dy="4"/>
<feGaussianBlur stdDeviation="2"/>
<feComposite in2="hardAlpha" operator="out"/>
<feColorMatrix type="matrix" values="0 0 0 0 0 0 0 0 0 0 0 0 0 0 0 0 0 0 0.25 0"/>
<feBlend mode="normal" in2="BackgroundImageFix" result="effect1_dropShadow_238_360"/>
<feBlend mode="normal" in="SourceGraphic" in2="effect1_dropShadow_238_360" result="shape"/>
</filter>
</defs>
</svg>
